# xmcd
#
# Track frame offsets: 
#        150
#        39316
#        72489
#        76797
#        84607
#        118774
#        122661
#        135423
#        151567
#
# Disc length: 2132 seconds
#
# Revision: 0
# Processed by: cddbd v1.5.2PL0 Copyright (c) Steve Scherf et al.
# Submitted via: ExactAudioCopy v0.99pb3
#
DISCID=66085209
DTITLE=Douhi Sofiane - Le rappel a l'ordre
DYEAR=2008
DGENRE=Chanson
TTITLE0=Lettres à la republique francaise
TTITLE1=Lettre a Marianne
TTITLE2=Le prejuge
TTITLE3=Le chant de la liberte
TTITLE4=La distinction
TTITLE5=Joliement nous
TTITLE6=La renaissance
TTITLE7=L'amertume
TTITLE8=La Reconnaissance
EXTD=
EXTT0=
EXTT1=
EXTT2=
EXTT3=
EXTT4=
EXTT5=
EXTT6=
EXTT7=
EXTT8=
PLAYORDER=
